# xmcd CD database file
#
# Track frame offsets:
#	150
#	9012
#	20512
#	36525
#	54050
#	73337
#	86625
#	108212
#	119162
#	131637
#	153862
#	166687
#	189487
#	208675
#	225762
#	242675
#
# Disc length: 3518 seconds
#
# Revision: 1
# Processed by: cddbd v1.5.2PL0 Copyright (c) Steve Scherf et al.
# Submitted via: CDex 1.51
#
DISCID=c60dbc10
DTITLE=Lightnin' Hopkins - Mama And Papa Hopkins - Golden Classics Part 3
DYEAR=1900
DGENRE=Blues
TTITLE0=Bunion Stew
TTITLE1=You Got To Work To Get Your Pay
TTITLE2=Go Down Old Hannah
TTITLE3=Hear My Black Dog Bark
TTITLE4=In The Evening, The Sun Is Going Down
TTITLE5=Trouble In Mind
TTITLE6=Mama And Papa Hopkins
TTITLE7=What Did I Say
TTITLE8=The Foot Race Is On
TTITLE9=That Gambling Life
TTITLE10=When The Saints Go Marching In
TTITLE11=Get Off My Toe
TTITLE12=75 Highway
TTITLE13=Bottle Up And Go
TTITLE14=Short Haired Woman
TTITLE15=Don't Wake Me
EXTD=
EXTT0=
EXTT1=
EXTT2=
EXTT3=
EXTT4=
EXTT5=
EXTT6=
EXTT7=
EXTT8=
EXTT9=
EXTT10=
EXTT11=
EXTT12=
EXTT13=
EXTT14=
EXTT15=
PLAYORDER=
